<?xml version="1.0" encoding="utf-8" standalone="no"?>
<!DOCTYPE svg PUBLIC "-//W3C//DTD SVG 1.1//EN"
  "http://www.w3.org/Graphics/SVG/1.1/DTD/svg11.dtd">
<svg xmlns:xlink="http://www.w3.org/1999/xlink" width="720pt" height="360pt" viewBox="0 0 720 360" xmlns="http://www.w3.org/2000/svg" version="1.1">
 <metadata>
  <rdf:RDF xmlns:dc="http://purl.org/dc/elements/1.1/" xmlns:cc="http://creativecommons.org/ns#" xmlns:rdf="http://www.w3.org/1999/02/22-rdf-syntax-ns#">
   <cc:Work>
    <dc:type rdf:resource="http://purl.org/dc/dcmitype/StillImage"/>
    <dc:date>2022-03-08T14:50:19.988420</dc:date>
    <dc:format>image/svg+xml</dc:format>
    <dc:creator>
     <cc:Agent>
      <dc:title>Matplotlib v3.5.0, https://matplotlib.org/</dc:title>
     </cc:Agent>
    </dc:creator>
   </cc:Work>
  </rdf:RDF>
 </metadata>
 <defs>
  <style type="text/css">*{stroke-linejoin: round; stroke-linecap: butt}</style>
 </defs>
 <g id="figure_1">
  <g id="patch_1">
   <path d="M 0 360 
L 720 360 
L 720 0 
L 0 0 
z
" style="fill: #ffffff"/>
  </g>
  <g id="axes_1">
   <g id="patch_2">
    <path d="M 58.175 264.24301 
L 265.85335 264.24301 
L 265.85335 36.8 
L 58.175 36.8 
z
" style="fill: #f5f5f5"/>
   </g>
   <g id="matplotlib.axis_1">
    <g id="xtick_1">
     <g id="line2d_1">
      <defs>
       <path id="m0507353bd6" d="M 0 0 
L 0 3.5 
" style="stroke: #000000; stroke-width: 0.8"/>
      </defs>
      <g>
       <use xlink:href="#m0507353bd6" x="67.614925" y="264.24301" style="stroke: #000000; stroke-width: 0.8"/>
      </g>
     </g>
     <g id="text_1">
      <!-- 60 -->
      <g transform="translate(61.252425 278.841448)scale(0.1 -0.1)">
       <defs>
        <path id="DejaVuSans-36" d="M 2113 2584 
Q 1688 2584 1439 2293 
Q 1191 2003 1191 1497 
Q 1191 994 1439 701 
Q 1688 409 2113 409 
Q 2538 409 2786 701 
Q 3034 994 3034 1497 
Q 3034 2003 2786 2293 
Q 2538 2584 2113 2584 
z
M 3366 4563 
L 3366 3988 
Q 3128 4100 2886 4159 
Q 2644 4219 2406 4219 
Q 1781 4219 1451 3797 
Q 1122 3375 1075 2522 
Q 1259 2794 1537 2939 
Q 1816 3084 2150 3084 
Q 2853 3084 3261 2657 
Q 3669 2231 3669 1497 
Q 3669 778 3244 343 
Q 2819 -91 2113 -91 
Q 1303 -91 875 529 
Q 447 1150 447 2328 
Q 447 3434 972 4092 
Q 1497 4750 2381 4750 
Q 2619 4750 2861 4703 
Q 3103 4656 3366 4563 
z
" transform="scale(0.015625)"/>
        <path id="DejaVuSans-30" d="M 2034 4250 
Q 1547 4250 1301 3770 
Q 1056 3291 1056 2328 
Q 1056 1369 1301 889 
Q 1547 409 2034 409 
Q 2525 409 2770 889 
Q 3016 1369 3016 2328 
Q 3016 3291 2770 3770 
Q 2525 4250 2034 4250 
z
M 2034 4750 
Q 2819 4750 3233 4129 
Q 3647 3509 3647 2328 
Q 3647 1150 3233 529 
Q 2819 -91 2034 -91 
Q 1250 -91 836 529 
Q 422 1150 422 2328 
Q 422 3509 836 4129 
Q 1250 4750 2034 4750 
z
" transform="scale(0.015625)"/>
       </defs>
       <use xlink:href="#DejaVuSans-36"/>
       <use xlink:href="#DejaVuSans-30" x="63.623047"/>
      </g>
     </g>
    </g>
    <g id="xtick_2">
     <g id="line2d_2">
      <g>
       <use xlink:href="#m0507353bd6" x="162.014175" y="264.24301" style="stroke: #000000; stroke-width: 0.8"/>
      </g>
     </g>
     <g id="text_2">
      <!-- 90 -->
      <g transform="translate(155.651675 278.841448)scale(0.1 -0.1)">
       <defs>
        <path id="DejaVuSans-39" d="M 703 97 
L 703 672 
Q 941 559 1184 500 
Q 1428 441 1663 441 
Q 2288 441 2617 861 
Q 2947 1281 2994 2138 
Q 2813 1869 2534 1725 
Q 2256 1581 1919 1581 
Q 1219 1581 811 2004 
Q 403 2428 403 3163 
Q 403 3881 828 4315 
Q 1253 4750 1959 4750 
Q 2769 4750 3195 4129 
Q 3622 3509 3622 2328 
Q 3622 1225 3098 567 
Q 2575 -91 1691 -91 
Q 1453 -91 1209 -44 
Q 966 3 703 97 
z
M 1959 2075 
Q 2384 2075 2632 2365 
Q 2881 2656 2881 3163 
Q 2881 3666 2632 3958 
Q 2384 4250 1959 4250 
Q 1534 4250 1286 3958 
Q 1038 3666 1038 3163 
Q 1038 2656 1286 2365 
Q 1534 2075 1959 2075 
z
" transform="scale(0.015625)"/>
       </defs>
       <use xlink:href="#DejaVuSans-39"/>
       <use xlink:href="#DejaVuSans-30" x="63.623047"/>
      </g>
     </g>
    </g>
    <g id="xtick_3">
     <g id="line2d_3">
      <g>
       <use xlink:href="#m0507353bd6" x="256.413425" y="264.24301" style="stroke: #000000; stroke-width: 0.8"/>
      </g>
     </g>
     <g id="text_3">
      <!-- 120 -->
      <g transform="translate(246.869675 278.841448)scale(0.1 -0.1)">
       <defs>
        <path id="DejaVuSans-31" d="M 794 531 
L 1825 531 
L 1825 4091 
L 703 3866 
L 703 4441 
L 1819 4666 
L 2450 4666 
L 2450 531 
L 3481 531 
L 3481 0 
L 794 0 
L 794 531 
z
" transform="scale(0.015625)"/>
        <path id="DejaVuSans-32" d="M 1228 531 
L 3431 531 
L 3431 0 
L 469 0 
L 469 531 
Q 828 903 1448 1529 
Q 2069 2156 2228 2338 
Q 2531 2678 2651 2914 
Q 2772 3150 2772 3378 
Q 2772 3750 2511 3984 
Q 2250 4219 1831 4219 
Q 1534 4219 1204 4116 
Q 875 4013 500 3803 
L 500 4441 
Q 881 4594 1212 4672 
Q 1544 4750 1819 4750 
Q 2544 4750 2975 4387 
Q 3406 4025 3406 3419 
Q 3406 3131 3298 2873 
Q 3191 2616 2906 2266 
Q 2828 2175 2409 1742 
Q 1991 1309 1228 531 
z
" transform="scale(0.015625)"/>
       </defs>
       <use xlink:href="#DejaVuSans-31"/>
       <use xlink:href="#DejaVuSans-32" x="63.623047"/>
       <use xlink:href="#DejaVuSans-30" x="127.246094"/>
      </g>
     </g>
    </g>
   </g>
   <g id="matplotlib.axis_2">
    <g id="ytick_1">
     <g id="line2d_4">
      <path d="M 58.175 236.753784 
L 265.85335 236.753784 
" clip-path="url(#p1ce7589610)" style="fill: none; stroke: #ffffff; stroke-linecap: square"/>
     </g>
     <g id="line2d_5">
      <defs>
       <path id="m0824cfbeb8" d="M 0 0 
L -3.5 0 
" style="stroke: #000000; stroke-width: 0.8"/>
      </defs>
      <g>
       <use xlink:href="#m0824cfbeb8" x="58.175" y="236.753784" style="stroke: #000000; stroke-width: 0.8"/>
      </g>
     </g>
     <g id="text_4">
      <!-- 0.70 -->
      <g transform="translate(28.909375 240.553003)scale(0.1 -0.1)">
       <defs>
        <path id="DejaVuSans-2e" d="M 684 794 
L 1344 794 
L 1344 0 
L 684 0 
L 684 794 
z
" transform="scale(0.015625)"/>
        <path id="DejaVuSans-37" d="M 525 4666 
L 3525 4666 
L 3525 4397 
L 1831 0 
L 1172 0 
L 2766 4134 
L 525 4134 
L 525 4666 
z
" transform="scale(0.015625)"/>
       </defs>
       <use xlink:href="#DejaVuSans-30"/>
       <use xlink:href="#DejaVuSans-2e" x="63.623047"/>
       <use xlink:href="#DejaVuSans-37" x="95.410156"/>
       <use xlink:href="#DejaVuSans-30" x="159.033203"/>
      </g>
     </g>
    </g>
    <g id="ytick_2">
     <g id="line2d_6">
      <path d="M 58.175 197.576769 
L 265.85335 197.576769 
" clip-path="url(#p1ce7589610)" style="fill: none; stroke: #ffffff; stroke-linecap: square"/>
     </g>
     <g id="line2d_7">
      <g>
       <use xlink:href="#m0824cfbeb8" x="58.175" y="197.576769" style="stroke: #000000; stroke-width: 0.8"/>
      </g>
     </g>
     <g id="text_5">
      <!-- 0.75 -->
      <g transform="translate(28.909375 201.375988)scale(0.1 -0.1)">
       <defs>
        <path id="DejaVuSans-35" d="M 691 4666 
L 3169 4666 
L 3169 4134 
L 1269 4134 
L 1269 2991 
Q 1406 3038 1543 3061 
Q 1681 3084 1819 3084 
Q 2600 3084 3056 2656 
Q 3513 2228 3513 1497 
Q 3513 744 3044 326 
Q 2575 -91 1722 -91 
Q 1428 -91 1123 -41 
Q 819 9 494 109 
L 494 744 
Q 775 591 1075 516 
Q 1375 441 1709 441 
Q 2250 441 2565 725 
Q 2881 1009 2881 1497 
Q 2881 1984 2565 2268 
Q 2250 2553 1709 2553 
Q 1456 2553 1204 2497 
Q 953 2441 691 2322 
L 691 4666 
z
" transform="scale(0.015625)"/>
       </defs>
       <use xlink:href="#DejaVuSans-30"/>
       <use xlink:href="#DejaVuSans-2e" x="63.623047"/>
       <use xlink:href="#DejaVuSans-37" x="95.410156"/>
       <use xlink:href="#DejaVuSans-35" x="159.033203"/>
      </g>
     </g>
    </g>
    <g id="ytick_3">
     <g id="line2d_8">
      <path d="M 58.175 158.399754 
L 265.85335 158.399754 
" clip-path="url(#p1ce7589610)" style="fill: none; stroke: #ffffff; stroke-linecap: square"/>
     </g>
     <g id="line2d_9">
      <g>
       <use xlink:href="#m0824cfbeb8" x="58.175" y="158.399754" style="stroke: #000000; stroke-width: 0.8"/>
      </g>
     </g>
     <g id="text_6">
      <!-- 0.80 -->
      <g transform="translate(28.909375 162.198973)scale(0.1 -0.1)">
       <defs>
        <path id="DejaVuSans-38" d="M 2034 2216 
Q 1584 2216 1326 1975 
Q 1069 1734 1069 1313 
Q 1069 891 1326 650 
Q 1584 409 2034 409 
Q 2484 409 2743 651 
Q 3003 894 3003 1313 
Q 3003 1734 2745 1975 
Q 2488 2216 2034 2216 
z
M 1403 2484 
Q 997 2584 770 2862 
Q 544 3141 544 3541 
Q 544 4100 942 4425 
Q 1341 4750 2034 4750 
Q 2731 4750 3128 4425 
Q 3525 4100 3525 3541 
Q 3525 3141 3298 2862 
Q 3072 2584 2669 2484 
Q 3125 2378 3379 2068 
Q 3634 1759 3634 1313 
Q 3634 634 3220 271 
Q 2806 -91 2034 -91 
Q 1263 -91 848 271 
Q 434 634 434 1313 
Q 434 1759 690 2068 
Q 947 2378 1403 2484 
z
M 1172 3481 
Q 1172 3119 1398 2916 
Q 1625 2713 2034 2713 
Q 2441 2713 2670 2916 
Q 2900 3119 2900 3481 
Q 2900 3844 2670 4047 
Q 2441 4250 2034 4250 
Q 1625 4250 1398 4047 
Q 1172 3844 1172 3481 
z
" transform="scale(0.015625)"/>
       </defs>
       <use xlink:href="#DejaVuSans-30"/>
       <use xlink:href="#DejaVuSans-2e" x="63.623047"/>
       <use xlink:href="#DejaVuSans-38" x="95.410156"/>
       <use xlink:href="#DejaVuSans-30" x="159.033203"/>
      </g>
     </g>
    </g>
    <g id="ytick_4">
     <g id="line2d_10">
      <path d="M 58.175 119.222739 
L 265.85335 119.222739 
" clip-path="url(#p1ce7589610)" style="fill: none; stroke: #ffffff; stroke-linecap: square"/>
     </g>
     <g id="line2d_11">
      <g>
       <use xlink:href="#m0824cfbeb8" x="58.175" y="119.222739" style="stroke: #000000; stroke-width: 0.8"/>
      </g>
     </g>
     <g id="text_7">
      <!-- 0.85 -->
      <g transform="translate(28.909375 123.021958)scale(0.1 -0.1)">
       <use xlink:href="#DejaVuSans-30"/>
       <use xlink:href="#DejaVuSans-2e" x="63.623047"/>
       <use xlink:href="#DejaVuSans-38" x="95.410156"/>
       <use xlink:href="#DejaVuSans-35" x="159.033203"/>
      </g>
     </g>
    </g>
    <g id="ytick_5">
     <g id="line2d_12">
      <path d="M 58.175 80.045725 
L 265.85335 80.045725 
" clip-path="url(#p1ce7589610)" style="fill: none; stroke: #ffffff; stroke-linecap: square"/>
     </g>
     <g id="line2d_13">
      <g>
       <use xlink:href="#m0824cfbeb8" x="58.175" y="80.045725" style="stroke: #000000; stroke-width: 0.8"/>
      </g>
     </g>
     <g id="text_8">
      <!-- 0.90 -->
      <g transform="translate(28.909375 83.844943)scale(0.1 -0.1)">
       <use xlink:href="#DejaVuSans-30"/>
       <use xlink:href="#DejaVuSans-2e" x="63.623047"/>
       <use xlink:href="#DejaVuSans-39" x="95.410156"/>
       <use xlink:href="#DejaVuSans-30" x="159.033203"/>
      </g>
     </g>
    </g>
    <g id="ytick_6">
     <g id="line2d_14">
      <path d="M 58.175 40.86871 
L 265.85335 40.86871 
" clip-path="url(#p1ce7589610)" style="fill: none; stroke: #ffffff; stroke-linecap: square"/>
     </g>
     <g id="line2d_15">
      <g>
       <use xlink:href="#m0824cfbeb8" x="58.175" y="40.86871" style="stroke: #000000; stroke-width: 0.8"/>
      </g>
     </g>
     <g id="text_9">
      <!-- 0.95 -->
      <g transform="translate(28.909375 44.667928)scale(0.1 -0.1)">
       <use xlink:href="#DejaVuSans-30"/>
       <use xlink:href="#DejaVuSans-2e" x="63.623047"/>
       <use xlink:href="#DejaVuSans-39" x="95.410156"/>
       <use xlink:href="#DejaVuSans-35" x="159.033203"/>
      </g>
     </g>
    </g>
    <g id="text_10">
     <!-- score -->
     <g transform="translate(21.997812 169.327443)rotate(-90)scale(0.14 -0.14)">
      <defs>
       <path id="DejaVuSans-73" d="M 2834 3397 
L 2834 2853 
Q 2591 2978 2328 3040 
Q 2066 3103 1784 3103 
Q 1356 3103 1142 2972 
Q 928 2841 928 2578 
Q 928 2378 1081 2264 
Q 1234 2150 1697 2047 
L 1894 2003 
Q 2506 1872 2764 1633 
Q 3022 1394 3022 966 
Q 3022 478 2636 193 
Q 2250 -91 1575 -91 
Q 1294 -91 989 -36 
Q 684 19 347 128 
L 347 722 
Q 666 556 975 473 
Q 1284 391 1588 391 
Q 1994 391 2212 530 
Q 2431 669 2431 922 
Q 2431 1156 2273 1281 
Q 2116 1406 1581 1522 
L 1381 1569 
Q 847 1681 609 1914 
Q 372 2147 372 2553 
Q 372 3047 722 3315 
Q 1072 3584 1716 3584 
Q 2034 3584 2315 3537 
Q 2597 3491 2834 3397 
z
" transform="scale(0.015625)"/>
       <path id="DejaVuSans-63" d="M 3122 3366 
L 3122 2828 
Q 2878 2963 2633 3030 
Q 2388 3097 2138 3097 
Q 1578 3097 1268 2742 
Q 959 2388 959 1747 
Q 959 1106 1268 751 
Q 1578 397 2138 397 
Q 2388 397 2633 464 
Q 2878 531 3122 666 
L 3122 134 
Q 2881 22 2623 -34 
Q 2366 -91 2075 -91 
Q 1284 -91 818 406 
Q 353 903 353 1747 
Q 353 2603 823 3093 
Q 1294 3584 2113 3584 
Q 2378 3584 2631 3529 
Q 2884 3475 3122 3366 
z
" transform="scale(0.015625)"/>
       <path id="DejaVuSans-6f" d="M 1959 3097 
Q 1497 3097 1228 2736 
Q 959 2375 959 1747 
Q 959 1119 1226 758 
Q 1494 397 1959 397 
Q 2419 397 2687 759 
Q 2956 1122 2956 1747 
Q 2956 2369 2687 2733 
Q 2419 3097 1959 3097 
z
M 1959 3584 
Q 2709 3584 3137 3096 
Q 3566 2609 3566 1747 
Q 3566 888 3137 398 
Q 2709 -91 1959 -91 
Q 1206 -91 779 398 
Q 353 888 353 1747 
Q 353 2609 779 3096 
Q 1206 3584 1959 3584 
z
" transform="scale(0.015625)"/>
       <path id="DejaVuSans-72" d="M 2631 2963 
Q 2534 3019 2420 3045 
Q 2306 3072 2169 3072 
Q 1681 3072 1420 2755 
Q 1159 2438 1159 1844 
L 1159 0 
L 581 0 
L 581 3500 
L 1159 3500 
L 1159 2956 
Q 1341 3275 1631 3429 
Q 1922 3584 2338 3584 
Q 2397 3584 2469 3576 
Q 2541 3569 2628 3553 
L 2631 2963 
z
" transform="scale(0.015625)"/>
       <path id="DejaVuSans-65" d="M 3597 1894 
L 3597 1613 
L 953 1613 
Q 991 1019 1311 708 
Q 1631 397 2203 397 
Q 2534 397 2845 478 
Q 3156 559 3463 722 
L 3463 178 
Q 3153 47 2828 -22 
Q 2503 -91 2169 -91 
Q 1331 -91 842 396 
Q 353 884 353 1716 
Q 353 2575 817 3079 
Q 1281 3584 2069 3584 
Q 2775 3584 3186 3129 
Q 3597 2675 3597 1894 
z
M 3022 2063 
Q 3016 2534 2758 2815 
Q 2500 3097 2075 3097 
Q 1594 3097 1305 2825 
Q 1016 2553 972 2059 
L 3022 2063 
z
" transform="scale(0.015625)"/>
      </defs>
      <use xlink:href="#DejaVuSans-73"/>
      <use xlink:href="#DejaVuSans-63" x="52.099609"/>
      <use xlink:href="#DejaVuSans-6f" x="107.080078"/>
      <use xlink:href="#DejaVuSans-72" x="168.261719"/>
      <use xlink:href="#DejaVuSans-65" x="207.125"/>
     </g>
    </g>
   </g>
   <g id="line2d_16">
    <path d="M 67.614925 179.051018 
L 162.014175 171.145848 
L 256.413425 165.740871 
" clip-path="url(#p1ce7589610)" style="fill: none; stroke: #1f77b4; stroke-width: 1.5; stroke-linecap: square"/>
    <defs>
     <path id="m6b5209b4d5" d="M 0 3 
C 0.795609 3 1.55874 2.683901 2.12132 2.12132 
C 2.683901 1.55874 3 0.795609 3 0 
C 3 -0.795609 2.683901 -1.55874 2.12132 -2.12132 
C 1.55874 -2.683901 0.795609 -3 0 -3 
C -0.795609 -3 -1.55874 -2.683901 -2.12132 -2.12132 
C -2.683901 -1.55874 -3 -0.795609 -3 0 
C -3 0.795609 -2.683901 1.55874 -2.12132 2.12132 
C -1.55874 2.683901 -0.795609 3 0 3 
z
" style="stroke: #1f77b4"/>
    </defs>
    <g clip-path="url(#p1ce7589610)">
     <use xlink:href="#m6b5209b4d5" x="67.614925" y="179.051018" style="fill: #ffffff; stroke: #1f77b4"/>
     <use xlink:href="#m6b5209b4d5" x="162.014175" y="171.145848" style="fill: #ffffff; stroke: #1f77b4"/>
     <use xlink:href="#m6b5209b4d5" x="256.413425" y="165.740871" style="fill: #ffffff; stroke: #1f77b4"/>
    </g>
   </g>
   <g id="line2d_17">
    <path d="M 67.614925 88.752634 
L 162.014175 61.447098 
L 256.413425 47.138319 
" clip-path="url(#p1ce7589610)" style="fill: none; stroke: #ff7f0e; stroke-width: 1.5; stroke-linecap: square"/>
    <defs>
     <path id="m80631f9549" d="M 0 3 
C 0.795609 3 1.55874 2.683901 2.12132 2.12132 
C 2.683901 1.55874 3 0.795609 3 0 
C 3 -0.795609 2.683901 -1.55874 2.12132 -2.12132 
C 1.55874 -2.683901 0.795609 -3 0 -3 
C -0.795609 -3 -1.55874 -2.683901 -2.12132 -2.12132 
C -2.683901 -1.55874 -3 -0.795609 -3 0 
C -3 0.795609 -2.683901 1.55874 -2.12132 2.12132 
C -1.55874 2.683901 -0.795609 3 0 3 
z
" style="stroke: #ff7f0e"/>
    </defs>
    <g clip-path="url(#p1ce7589610)">
     <use xlink:href="#m80631f9549" x="67.614925" y="88.752634" style="fill: #ffffff; stroke: #ff7f0e"/>
     <use xlink:href="#m80631f9549" x="162.014175" y="61.447098" style="fill: #ffffff; stroke: #ff7f0e"/>
     <use xlink:href="#m80631f9549" x="256.413425" y="47.138319" style="fill: #ffffff; stroke: #ff7f0e"/>
    </g>
   </g>
   <g id="line2d_18">
    <path d="M 67.614925 253.904692 
L 162.014175 249.318287 
L 256.413425 250.054866 
" clip-path="url(#p1ce7589610)" style="fill: none; stroke: #2ca02c; stroke-width: 1.5; stroke-linecap: square"/>
    <defs>
     <path id="m73928fd0c6" d="M 0 3 
C 0.795609 3 1.55874 2.683901 2.12132 2.12132 
C 2.683901 1.55874 3 0.795609 3 0 
C 3 -0.795609 2.683901 -1.55874 2.12132 -2.12132 
C 1.55874 -2.683901 0.795609 -3 0 -3 
C -0.795609 -3 -1.55874 -2.683901 -2.12132 -2.12132 
C -2.683901 -1.55874 -3 -0.795609 -3 0 
C -3 0.795609 -2.683901 1.55874 -2.12132 2.12132 
C -1.55874 2.683901 -0.795609 3 0 3 
z
" style="stroke: #2ca02c"/>
    </defs>
    <g clip-path="url(#p1ce7589610)">
     <use xlink:href="#m73928fd0c6" x="67.614925" y="253.904692" style="fill: #ffffff; stroke: #2ca02c"/>
     <use xlink:href="#m73928fd0c6" x="162.014175" y="249.318287" style="fill: #ffffff; stroke: #2ca02c"/>
     <use xlink:href="#m73928fd0c6" x="256.413425" y="250.054866" style="fill: #ffffff; stroke: #2ca02c"/>
    </g>
   </g>
   <g id="line2d_19">
    <path d="M 67.614925 154.245708 
L 162.014175 121.857871 
L 256.413425 103.758617 
" clip-path="url(#p1ce7589610)" style="fill: none; stroke: #d62728; stroke-width: 1.5; stroke-linecap: square"/>
    <defs>
     <path id="m817577f4eb" d="M 0 3 
C 0.795609 3 1.55874 2.683901 2.12132 2.12132 
C 2.683901 1.55874 3 0.795609 3 0 
C 3 -0.795609 2.683901 -1.55874 2.12132 -2.12132 
C 1.55874 -2.683901 0.795609 -3 0 -3 
C -0.795609 -3 -1.55874 -2.683901 -2.12132 -2.12132 
C -2.683901 -1.55874 -3 -0.795609 -3 0 
C -3 0.795609 -2.683901 1.55874 -2.12132 2.12132 
C -1.55874 2.683901 -0.795609 3 0 3 
z
" style="stroke: #d62728"/>
    </defs>
    <g clip-path="url(#p1ce7589610)">
     <use xlink:href="#m817577f4eb" x="67.614925" y="154.245708" style="fill: #ffffff; stroke: #d62728"/>
     <use xlink:href="#m817577f4eb" x="162.014175" y="121.857871" style="fill: #ffffff; stroke: #d62728"/>
     <use xlink:href="#m817577f4eb" x="256.413425" y="103.758617" style="fill: #ffffff; stroke: #d62728"/>
    </g>
   </g>
   <g id="patch_3">
    <path d="M 58.175 264.24301 
L 58.175 36.8 
" style="fill: none; stroke: #000000; stroke-width: 0.8; stroke-linejoin: miter; stroke-linecap: square"/>
   </g>
   <g id="patch_4">
    <path d="M 58.175 264.24301 
L 265.85335 264.24301 
" style="fill: none; stroke: #000000; stroke-width: 0.8; stroke-linejoin: miter; stroke-linecap: square"/>
   </g>
  </g>
  <g id="axes_2">
   <g id="patch_5">
    <path d="M 310.908014 264.24301 
L 518.586364 264.24301 
L 518.586364 36.8 
L 310.908014 36.8 
z
" style="fill: #f5f5f5"/>
   </g>
   <g id="matplotlib.axis_3">
    <g id="xtick_4">
     <g id="line2d_20">
      <g>
       <use xlink:href="#m0507353bd6" x="320.347939" y="264.24301" style="stroke: #000000; stroke-width: 0.8"/>
      </g>
     </g>
     <g id="text_11">
      <!-- ['driver_behavior'] -->
      <g transform="translate(276.779931 302.294001)rotate(-15)scale(0.1 -0.1)">
       <defs>
        <path id="DejaVuSans-5b" d="M 550 4863 
L 1875 4863 
L 1875 4416 
L 1125 4416 
L 1125 -397 
L 1875 -397 
L 1875 -844 
L 550 -844 
L 550 4863 
z
" transform="scale(0.015625)"/>
        <path id="DejaVuSans-27" d="M 1147 4666 
L 1147 2931 
L 616 2931 
L 616 4666 
L 1147 4666 
z
" transform="scale(0.015625)"/>
        <path id="DejaVuSans-64" d="M 2906 2969 
L 2906 4863 
L 3481 4863 
L 3481 0 
L 2906 0 
L 2906 525 
Q 2725 213 2448 61 
Q 2172 -91 1784 -91 
Q 1150 -91 751 415 
Q 353 922 353 1747 
Q 353 2572 751 3078 
Q 1150 3584 1784 3584 
Q 2172 3584 2448 3432 
Q 2725 3281 2906 2969 
z
M 947 1747 
Q 947 1113 1208 752 
Q 1469 391 1925 391 
Q 2381 391 2643 752 
Q 2906 1113 2906 1747 
Q 2906 2381 2643 2742 
Q 2381 3103 1925 3103 
Q 1469 3103 1208 2742 
Q 947 2381 947 1747 
z
" transform="scale(0.015625)"/>
        <path id="DejaVuSans-69" d="M 603 3500 
L 1178 3500 
L 1178 0 
L 603 0 
L 603 3500 
z
M 603 4863 
L 1178 4863 
L 1178 4134 
L 603 4134 
L 603 4863 
z
" transform="scale(0.015625)"/>
        <path id="DejaVuSans-76" d="M 191 3500 
L 800 3500 
L 1894 563 
L 2988 3500 
L 3597 3500 
L 2284 0 
L 1503 0 
L 191 3500 
z
" transform="scale(0.015625)"/>
        <path id="DejaVuSans-5f" d="M 3263 -1063 
L 3263 -1509 
L -63 -1509 
L -63 -1063 
L 3263 -1063 
z
" transform="scale(0.015625)"/>
        <path id="DejaVuSans-62" d="M 3116 1747 
Q 3116 2381 2855 2742 
Q 2594 3103 2138 3103 
Q 1681 3103 1420 2742 
Q 1159 2381 1159 1747 
Q 1159 1113 1420 752 
Q 1681 391 2138 391 
Q 2594 391 2855 752 
Q 3116 1113 3116 1747 
z
M 1159 2969 
Q 1341 3281 1617 3432 
Q 1894 3584 2278 3584 
Q 2916 3584 3314 3078 
Q 3713 2572 3713 1747 
Q 3713 922 3314 415 
Q 2916 -91 2278 -91 
Q 1894 -91 1617 61 
Q 1341 213 1159 525 
L 1159 0 
L 581 0 
L 581 4863 
L 1159 4863 
L 1159 2969 
z
" transform="scale(0.015625)"/>
        <path id="DejaVuSans-68" d="M 3513 2113 
L 3513 0 
L 2938 0 
L 2938 2094 
Q 2938 2591 2744 2837 
Q 2550 3084 2163 3084 
Q 1697 3084 1428 2787 
Q 1159 2491 1159 1978 
L 1159 0 
L 581 0 
L 581 4863 
L 1159 4863 
L 1159 2956 
Q 1366 3272 1645 3428 
Q 1925 3584 2291 3584 
Q 2894 3584 3203 3211 
Q 3513 2838 3513 2113 
z
" transform="scale(0.015625)"/>
        <path id="DejaVuSans-61" d="M 2194 1759 
Q 1497 1759 1228 1600 
Q 959 1441 959 1056 
Q 959 750 1161 570 
Q 1363 391 1709 391 
Q 2188 391 2477 730 
Q 2766 1069 2766 1631 
L 2766 1759 
L 2194 1759 
z
M 3341 1997 
L 3341 0 
L 2766 0 
L 2766 531 
Q 2569 213 2275 61 
Q 1981 -91 1556 -91 
Q 1019 -91 701 211 
Q 384 513 384 1019 
Q 384 1609 779 1909 
Q 1175 2209 1959 2209 
L 2766 2209 
L 2766 2266 
Q 2766 2663 2505 2880 
Q 2244 3097 1772 3097 
Q 1472 3097 1187 3025 
Q 903 2953 641 2809 
L 641 3341 
Q 956 3463 1253 3523 
Q 1550 3584 1831 3584 
Q 2591 3584 2966 3190 
Q 3341 2797 3341 1997 
z
" transform="scale(0.015625)"/>
        <path id="DejaVuSans-5d" d="M 1947 4863 
L 1947 -844 
L 622 -844 
L 622 -397 
L 1369 -397 
L 1369 4416 
L 622 4416 
L 622 4863 
L 1947 4863 
z
" transform="scale(0.015625)"/>
       </defs>
       <use xlink:href="#DejaVuSans-5b"/>
       <use xlink:href="#DejaVuSans-27" x="39.013672"/>
       <use xlink:href="#DejaVuSans-64" x="66.503906"/>
       <use xlink:href="#DejaVuSans-72" x="129.980469"/>
       <use xlink:href="#DejaVuSans-69" x="171.09375"/>
       <use xlink:href="#DejaVuSans-76" x="198.876953"/>
       <use xlink:href="#DejaVuSans-65" x="258.056641"/>
       <use xlink:href="#DejaVuSans-72" x="319.580078"/>
       <use xlink:href="#DejaVuSans-5f" x="360.693359"/>
       <use xlink:href="#DejaVuSans-62" x="410.693359"/>
       <use xlink:href="#DejaVuSans-65" x="474.169922"/>
       <use xlink:href="#DejaVuSans-68" x="535.693359"/>
       <use xlink:href="#DejaVuSans-61" x="599.072266"/>
       <use xlink:href="#DejaVuSans-76" x="660.351562"/>
       <use xlink:href="#DejaVuSans-69" x="719.53125"/>
       <use xlink:href="#DejaVuSans-6f" x="747.314453"/>
       <use xlink:href="#DejaVuSans-72" x="808.496094"/>
       <use xlink:href="#DejaVuSans-27" x="849.609375"/>
       <use xlink:href="#DejaVuSans-5d" x="877.099609"/>
      </g>
     </g>
    </g>
    <g id="xtick_5">
     <g id="line2d_21">
      <g>
       <use xlink:href="#m0507353bd6" x="383.280772" y="264.24301" style="stroke: #000000; stroke-width: 0.8"/>
      </g>
     </g>
     <g id="text_12">
      <!-- ['driver_behavior', 'vehicle_behavior'] -->
      <g transform="translate(293.172496 327.234856)rotate(-15)scale(0.1 -0.1)">
       <defs>
        <path id="DejaVuSans-2c" d="M 750 794 
L 1409 794 
L 1409 256 
L 897 -744 
L 494 -744 
L 750 256 
L 750 794 
z
" transform="scale(0.015625)"/>
        <path id="DejaVuSans-20" transform="scale(0.015625)"/>
        <path id="DejaVuSans-6c" d="M 603 4863 
L 1178 4863 
L 1178 0 
L 603 0 
L 603 4863 
z
" transform="scale(0.015625)"/>
       </defs>
       <use xlink:href="#DejaVuSans-5b"/>
       <use xlink:href="#DejaVuSans-27" x="39.013672"/>
       <use xlink:href="#DejaVuSans-64" x="66.503906"/>
       <use xlink:href="#DejaVuSans-72" x="129.980469"/>
       <use xlink:href="#DejaVuSans-69" x="171.09375"/>
       <use xlink:href="#DejaVuSans-76" x="198.876953"/>
       <use xlink:href="#DejaVuSans-65" x="258.056641"/>
       <use xlink:href="#DejaVuSans-72" x="319.580078"/>
       <use xlink:href="#DejaVuSans-5f" x="360.693359"/>
       <use xlink:href="#DejaVuSans-62" x="410.693359"/>
       <use xlink:href="#DejaVuSans-65" x="474.169922"/>
       <use xlink:href="#DejaVuSans-68" x="535.693359"/>
       <use xlink:href="#DejaVuSans-61" x="599.072266"/>
       <use xlink:href="#DejaVuSans-76" x="660.351562"/>
       <use xlink:href="#DejaVuSans-69" x="719.53125"/>
       <use xlink:href="#DejaVuSans-6f" x="747.314453"/>
       <use xlink:href="#DejaVuSans-72" x="808.496094"/>
       <use xlink:href="#DejaVuSans-27" x="849.609375"/>
       <use xlink:href="#DejaVuSans-2c" x="877.099609"/>
       <use xlink:href="#DejaVuSans-20" x="908.886719"/>
       <use xlink:href="#DejaVuSans-27" x="940.673828"/>
       <use xlink:href="#DejaVuSans-76" x="968.164062"/>
       <use xlink:href="#DejaVuSans-65" x="1027.34375"/>
       <use xlink:href="#DejaVuSans-68" x="1088.867188"/>
       <use xlink:href="#DejaVuSans-69" x="1152.246094"/>
       <use xlink:href="#DejaVuSans-63" x="1180.029297"/>
       <use xlink:href="#DejaVuSans-6c" x="1235.009766"/>
       <use xlink:href="#DejaVuSans-65" x="1262.792969"/>
       <use xlink:href="#DejaVuSans-5f" x="1324.316406"/>
       <use xlink:href="#DejaVuSans-62" x="1374.316406"/>
       <use xlink:href="#DejaVuSans-65" x="1437.792969"/>
       <use xlink:href="#DejaVuSans-68" x="1499.316406"/>
       <use xlink:href="#DejaVuSans-61" x="1562.695312"/>
       <use xlink:href="#DejaVuSans-76" x="1623.974609"/>
       <use xlink:href="#DejaVuSans-69" x="1683.154297"/>
       <use xlink:href="#DejaVuSans-6f" x="1710.9375"/>
       <use xlink:href="#DejaVuSans-72" x="1772.119141"/>
       <use xlink:href="#DejaVuSans-27" x="1813.232422"/>
       <use xlink:href="#DejaVuSans-5d" x="1840.722656"/>
      </g>
     </g>
    </g>
    <g id="xtick_6">
     <g id="line2d_22">
      <g>
       <use xlink:href="#m0507353bd6" x="446.213605" y="264.24301" style="stroke: #000000; stroke-width: 0.8"/>
      </g>
     </g>
     <g id="text_13">
      <!-- ['driver_behavior', 'vehicle_behavior', 'navi'] -->
      <g transform="translate(340.160007 335.779929)rotate(-15)scale(0.1 -0.1)">
       <defs>
        <path id="DejaVuSans-6e" d="M 3513 2113 
L 3513 0 
L 2938 0 
L 2938 2094 
Q 2938 2591 2744 2837 
Q 2550 3084 2163 3084 
Q 1697 3084 1428 2787 
Q 1159 2491 1159 1978 
L 1159 0 
L 581 0 
L 581 3500 
L 1159 3500 
L 1159 2956 
Q 1366 3272 1645 3428 
Q 1925 3584 2291 3584 
Q 2894 3584 3203 3211 
Q 3513 2838 3513 2113 
z
" transform="scale(0.015625)"/>
       </defs>
       <use xlink:href="#DejaVuSans-5b"/>
       <use xlink:href="#DejaVuSans-27" x="39.013672"/>
       <use xlink:href="#DejaVuSans-64" x="66.503906"/>
       <use xlink:href="#DejaVuSans-72" x="129.980469"/>
       <use xlink:href="#DejaVuSans-69" x="171.09375"/>
       <use xlink:href="#DejaVuSans-76" x="198.876953"/>
       <use xlink:href="#DejaVuSans-65" x="258.056641"/>
       <use xlink:href="#DejaVuSans-72" x="319.580078"/>
       <use xlink:href="#DejaVuSans-5f" x="360.693359"/>
       <use xlink:href="#DejaVuSans-62" x="410.693359"/>
       <use xlink:href="#DejaVuSans-65" x="474.169922"/>
       <use xlink:href="#DejaVuSans-68" x="535.693359"/>
       <use xlink:href="#DejaVuSans-61" x="599.072266"/>
       <use xlink:href="#DejaVuSans-76" x="660.351562"/>
       <use xlink:href="#DejaVuSans-69" x="719.53125"/>
       <use xlink:href="#DejaVuSans-6f" x="747.314453"/>
       <use xlink:href="#DejaVuSans-72" x="808.496094"/>
       <use xlink:href="#DejaVuSans-27" x="849.609375"/>
       <use xlink:href="#DejaVuSans-2c" x="877.099609"/>
       <use xlink:href="#DejaVuSans-20" x="908.886719"/>
       <use xlink:href="#DejaVuSans-27" x="940.673828"/>
       <use xlink:href="#DejaVuSans-76" x="968.164062"/>
       <use xlink:href="#DejaVuSans-65" x="1027.34375"/>
       <use xlink:href="#DejaVuSans-68" x="1088.867188"/>
       <use xlink:href="#DejaVuSans-69" x="1152.246094"/>
       <use xlink:href="#DejaVuSans-63" x="1180.029297"/>
       <use xlink:href="#DejaVuSans-6c" x="1235.009766"/>
       <use xlink:href="#DejaVuSans-65" x="1262.792969"/>
       <use xlink:href="#DejaVuSans-5f" x="1324.316406"/>
       <use xlink:href="#DejaVuSans-62" x="1374.316406"/>
       <use xlink:href="#DejaVuSans-65" x="1437.792969"/>
       <use xlink:href="#DejaVuSans-68" x="1499.316406"/>
       <use xlink:href="#DejaVuSans-61" x="1562.695312"/>
       <use xlink:href="#DejaVuSans-76" x="1623.974609"/>
       <use xlink:href="#DejaVuSans-69" x="1683.154297"/>
       <use xlink:href="#DejaVuSans-6f" x="1710.9375"/>
       <use xlink:href="#DejaVuSans-72" x="1772.119141"/>
       <use xlink:href="#DejaVuSans-27" x="1813.232422"/>
       <use xlink:href="#DejaVuSans-2c" x="1840.722656"/>
       <use xlink:href="#DejaVuSans-20" x="1872.509766"/>
       <use xlink:href="#DejaVuSans-27" x="1904.296875"/>
       <use xlink:href="#DejaVuSans-6e" x="1931.787109"/>
       <use xlink:href="#DejaVuSans-61" x="1995.166016"/>
       <use xlink:href="#DejaVuSans-76" x="2056.445312"/>
       <use xlink:href="#DejaVuSans-69" x="2115.625"/>
       <use xlink:href="#DejaVuSans-27" x="2143.408203"/>
       <use xlink:href="#DejaVuSans-5d" x="2170.898438"/>
      </g>
     </g>
    </g>
    <g id="xtick_7">
     <g id="line2d_23">
      <g>
       <use xlink:href="#m0507353bd6" x="509.146439" y="264.24301" style="stroke: #000000; stroke-width: 0.8"/>
      </g>
     </g>
     <g id="text_14">
      <!-- ['driver_behavior', 'vehicle_behavior', 'navi', 'radar'] -->
      <g transform="translate(384.411986 345.790968)rotate(-15)scale(0.1 -0.1)">
       <use xlink:href="#DejaVuSans-5b"/>
       <use xlink:href="#DejaVuSans-27" x="39.013672"/>
       <use xlink:href="#DejaVuSans-64" x="66.503906"/>
       <use xlink:href="#DejaVuSans-72" x="129.980469"/>
       <use xlink:href="#DejaVuSans-69" x="171.09375"/>
       <use xlink:href="#DejaVuSans-76" x="198.876953"/>
       <use xlink:href="#DejaVuSans-65" x="258.056641"/>
       <use xlink:href="#DejaVuSans-72" x="319.580078"/>
       <use xlink:href="#DejaVuSans-5f" x="360.693359"/>
       <use xlink:href="#DejaVuSans-62" x="410.693359"/>
       <use xlink:href="#DejaVuSans-65" x="474.169922"/>
       <use xlink:href="#DejaVuSans-68" x="535.693359"/>
       <use xlink:href="#DejaVuSans-61" x="599.072266"/>
       <use xlink:href="#DejaVuSans-76" x="660.351562"/>
       <use xlink:href="#DejaVuSans-69" x="719.53125"/>
       <use xlink:href="#DejaVuSans-6f" x="747.314453"/>
       <use xlink:href="#DejaVuSans-72" x="808.496094"/>
       <use xlink:href="#DejaVuSans-27" x="849.609375"/>
       <use xlink:href="#DejaVuSans-2c" x="877.099609"/>
       <use xlink:href="#DejaVuSans-20" x="908.886719"/>
       <use xlink:href="#DejaVuSans-27" x="940.673828"/>
       <use xlink:href="#DejaVuSans-76" x="968.164062"/>
       <use xlink:href="#DejaVuSans-65" x="1027.34375"/>
       <use xlink:href="#DejaVuSans-68" x="1088.867188"/>
       <use xlink:href="#DejaVuSans-69" x="1152.246094"/>
       <use xlink:href="#DejaVuSans-63" x="1180.029297"/>
       <use xlink:href="#DejaVuSans-6c" x="1235.009766"/>
       <use xlink:href="#DejaVuSans-65" x="1262.792969"/>
       <use xlink:href="#DejaVuSans-5f" x="1324.316406"/>
       <use xlink:href="#DejaVuSans-62" x="1374.316406"/>
       <use xlink:href="#DejaVuSans-65" x="1437.792969"/>
       <use xlink:href="#DejaVuSans-68" x="1499.316406"/>
       <use xlink:href="#DejaVuSans-61" x="1562.695312"/>
       <use xlink:href="#DejaVuSans-76" x="1623.974609"/>
       <use xlink:href="#DejaVuSans-69" x="1683.154297"/>
       <use xlink:href="#DejaVuSans-6f" x="1710.9375"/>
       <use xlink:href="#DejaVuSans-72" x="1772.119141"/>
       <use xlink:href="#DejaVuSans-27" x="1813.232422"/>
       <use xlink:href="#DejaVuSans-2c" x="1840.722656"/>
       <use xlink:href="#DejaVuSans-20" x="1872.509766"/>
       <use xlink:href="#DejaVuSans-27" x="1904.296875"/>
       <use xlink:href="#DejaVuSans-6e" x="1931.787109"/>
       <use xlink:href="#DejaVuSans-61" x="1995.166016"/>
       <use xlink:href="#DejaVuSans-76" x="2056.445312"/>
       <use xlink:href="#DejaVuSans-69" x="2115.625"/>
       <use xlink:href="#DejaVuSans-27" x="2143.408203"/>
       <use xlink:href="#DejaVuSans-2c" x="2170.898438"/>
       <use xlink:href="#DejaVuSans-20" x="2202.685547"/>
       <use xlink:href="#DejaVuSans-27" x="2234.472656"/>
       <use xlink:href="#DejaVuSans-72" x="2261.962891"/>
       <use xlink:href="#DejaVuSans-61" x="2303.076172"/>
       <use xlink:href="#DejaVuSans-64" x="2364.355469"/>
       <use xlink:href="#DejaVuSans-61" x="2427.832031"/>
       <use xlink:href="#DejaVuSans-72" x="2489.111328"/>
       <use xlink:href="#DejaVuSans-27" x="2530.224609"/>
       <use xlink:href="#DejaVuSans-5d" x="2557.714844"/>
      </g>
     </g>
    </g>
   </g>
   <g id="matplotlib.axis_4">
    <g id="ytick_7">
     <g id="line2d_24">
      <path d="M 310.908014 236.753784 
L 518.586364 236.753784 
" clip-path="url(#peefd21b4f0)" style="fill: none; stroke: #ffffff; stroke-linecap: square"/>
     </g>
     <g id="line2d_25">
      <g>
       <use xlink:href="#m0824cfbeb8" x="310.908014" y="236.753784" style="stroke: #000000; stroke-width: 0.8"/>
      </g>
     </g>
    </g>
    <g id="ytick_8">
     <g id="line2d_26">
      <path d="M 310.908014 197.576769 
L 518.586364 197.576769 
" clip-path="url(#peefd21b4f0)" style="fill: none; stroke: #ffffff; stroke-linecap: square"/>
     </g>
     <g id="line2d_27">
      <g>
       <use xlink:href="#m0824cfbeb8" x="310.908014" y="197.576769" style="stroke: #000000; stroke-width: 0.8"/>
      </g>
     </g>
    </g>
    <g id="ytick_9">
     <g id="line2d_28">
      <path d="M 310.908014 158.399754 
L 518.586364 158.399754 
" clip-path="url(#peefd21b4f0)" style="fill: none; stroke: #ffffff; stroke-linecap: square"/>
     </g>
     <g id="line2d_29">
      <g>
       <use xlink:href="#m0824cfbeb8" x="310.908014" y="158.399754" style="stroke: #000000; stroke-width: 0.8"/>
      </g>
     </g>
    </g>
    <g id="ytick_10">
     <g id="line2d_30">
      <path d="M 310.908014 119.222739 
L 518.586364 119.222739 
" clip-path="url(#peefd21b4f0)" style="fill: none; stroke: #ffffff; stroke-linecap: square"/>
     </g>
     <g id="line2d_31">
      <g>
       <use xlink:href="#m0824cfbeb8" x="310.908014" y="119.222739" style="stroke: #000000; stroke-width: 0.8"/>
      </g>
     </g>
    </g>
    <g id="ytick_11">
     <g id="line2d_32">
      <path d="M 310.908014 80.045725 
L 518.586364 80.045725 
" clip-path="url(#peefd21b4f0)" style="fill: none; stroke: #ffffff; stroke-linecap: square"/>
     </g>
     <g id="line2d_33">
      <g>
       <use xlink:href="#m0824cfbeb8" x="310.908014" y="80.045725" style="stroke: #000000; stroke-width: 0.8"/>
      </g>
     </g>
    </g>
    <g id="ytick_12">
     <g id="line2d_34">
      <path d="M 310.908014 40.86871 
L 518.586364 40.86871 
" clip-path="url(#peefd21b4f0)" style="fill: none; stroke: #ffffff; stroke-linecap: square"/>
     </g>
     <g id="line2d_35">
      <g>
       <use xlink:href="#m0824cfbeb8" x="310.908014" y="40.86871" style="stroke: #000000; stroke-width: 0.8"/>
      </g>
     </g>
    </g>
   </g>
   <g id="line2d_36">
    <path d="M 320.347939 172.073154 
L 383.280772 170.417257 
L 446.213605 172.99061 
L 509.146439 172.435961 
" clip-path="url(#peefd21b4f0)" style="fill: none; stroke: #1f77b4; stroke-width: 1.5; stroke-linecap: square"/>
    <g clip-path="url(#peefd21b4f0)">
     <use xlink:href="#m6b5209b4d5" x="320.347939" y="172.073154" style="fill: #ffffff; stroke: #1f77b4"/>
     <use xlink:href="#m6b5209b4d5" x="383.280772" y="170.417257" style="fill: #ffffff; stroke: #1f77b4"/>
     <use xlink:href="#m6b5209b4d5" x="446.213605" y="172.99061" style="fill: #ffffff; stroke: #1f77b4"/>
     <use xlink:href="#m6b5209b4d5" x="509.146439" y="172.435961" style="fill: #ffffff; stroke: #1f77b4"/>
    </g>
   </g>
   <g id="line2d_37">
    <path d="M 320.347939 89.556737 
L 383.280772 62.379466 
L 446.213605 58.624671 
L 509.146439 52.556527 
" clip-path="url(#peefd21b4f0)" style="fill: none; stroke: #ff7f0e; stroke-width: 1.5; stroke-linecap: square"/>
    <g clip-path="url(#peefd21b4f0)">
     <use xlink:href="#m80631f9549" x="320.347939" y="89.556737" style="fill: #ffffff; stroke: #ff7f0e"/>
     <use xlink:href="#m80631f9549" x="383.280772" y="62.379466" style="fill: #ffffff; stroke: #ff7f0e"/>
     <use xlink:href="#m80631f9549" x="446.213605" y="58.624671" style="fill: #ffffff; stroke: #ff7f0e"/>
     <use xlink:href="#m80631f9549" x="509.146439" y="52.556527" style="fill: #ffffff; stroke: #ff7f0e"/>
    </g>
   </g>
   <g id="line2d_38">
    <path d="M 320.347939 252.448504 
L 383.280772 249.647201 
L 446.213605 251.098992 
L 509.146439 251.175761 
" clip-path="url(#peefd21b4f0)" style="fill: none; stroke: #2ca02c; stroke-width: 1.5; stroke-linecap: square"/>
    <g clip-path="url(#peefd21b4f0)">
     <use xlink:href="#m73928fd0c6" x="320.347939" y="252.448504" style="fill: #ffffff; stroke: #2ca02c"/>
     <use xlink:href="#m73928fd0c6" x="383.280772" y="249.647201" style="fill: #ffffff; stroke: #2ca02c"/>
     <use xlink:href="#m73928fd0c6" x="446.213605" y="251.098992" style="fill: #ffffff; stroke: #2ca02c"/>
     <use xlink:href="#m73928fd0c6" x="509.146439" y="251.175761" style="fill: #ffffff; stroke: #2ca02c"/>
    </g>
   </g>
   <g id="line2d_39">
    <path d="M 320.347939 153.952449 
L 383.280772 122.896376 
L 446.213605 118.909963 
L 509.146439 110.72414 
" clip-path="url(#peefd21b4f0)" style="fill: none; stroke: #d62728; stroke-width: 1.5; stroke-linecap: square"/>
    <g clip-path="url(#peefd21b4f0)">
     <use xlink:href="#m817577f4eb" x="320.347939" y="153.952449" style="fill: #ffffff; stroke: #d62728"/>
     <use xlink:href="#m817577f4eb" x="383.280772" y="122.896376" style="fill: #ffffff; stroke: #d62728"/>
     <use xlink:href="#m817577f4eb" x="446.213605" y="118.909963" style="fill: #ffffff; stroke: #d62728"/>
     <use xlink:href="#m817577f4eb" x="509.146439" y="110.72414" style="fill: #ffffff; stroke: #d62728"/>
    </g>
   </g>
   <g id="patch_6">
    <path d="M 310.908014 264.24301 
L 310.908014 36.8 
" style="fill: none; stroke: #000000; stroke-width: 0.8; stroke-linejoin: miter; stroke-linecap: square"/>
   </g>
   <g id="patch_7">
    <path d="M 310.908014 264.24301 
L 518.586364 264.24301 
" style="fill: none; stroke: #000000; stroke-width: 0.8; stroke-linejoin: miter; stroke-linecap: square"/>
   </g>
   <g id="text_15">
    <!-- Effect on scores when varying window size/signal combos -->
    <g transform="translate(186.409376 21.8)scale(0.14 -0.14)">
     <defs>
      <path id="DejaVuSans-Bold-45" d="M 588 4666 
L 3834 4666 
L 3834 3756 
L 1791 3756 
L 1791 2888 
L 3713 2888 
L 3713 1978 
L 1791 1978 
L 1791 909 
L 3903 909 
L 3903 0 
L 588 0 
L 588 4666 
z
" transform="scale(0.015625)"/>
      <path id="DejaVuSans-Bold-66" d="M 2841 4863 
L 2841 4128 
L 2222 4128 
Q 1984 4128 1890 4042 
Q 1797 3956 1797 3744 
L 1797 3500 
L 2753 3500 
L 2753 2700 
L 1797 2700 
L 1797 0 
L 678 0 
L 678 2700 
L 122 2700 
L 122 3500 
L 678 3500 
L 678 3744 
Q 678 4316 997 4589 
Q 1316 4863 1984 4863 
L 2841 4863 
z
" transform="scale(0.015625)"/>
      <path id="DejaVuSans-Bold-65" d="M 4031 1759 
L 4031 1441 
L 1416 1441 
Q 1456 1047 1700 850 
Q 1944 653 2381 653 
Q 2734 653 3104 758 
Q 3475 863 3866 1075 
L 3866 213 
Q 3469 63 3072 -14 
Q 2675 -91 2278 -91 
Q 1328 -91 801 392 
Q 275 875 275 1747 
Q 275 2603 792 3093 
Q 1309 3584 2216 3584 
Q 3041 3584 3536 3087 
Q 4031 2591 4031 1759 
z
M 2881 2131 
Q 2881 2450 2695 2645 
Q 2509 2841 2209 2841 
Q 1884 2841 1681 2658 
Q 1478 2475 1428 2131 
L 2881 2131 
z
" transform="scale(0.015625)"/>
      <path id="DejaVuSans-Bold-63" d="M 3366 3391 
L 3366 2478 
Q 3138 2634 2908 2709 
Q 2678 2784 2431 2784 
Q 1963 2784 1702 2511 
Q 1441 2238 1441 1747 
Q 1441 1256 1702 982 
Q 1963 709 2431 709 
Q 2694 709 2930 787 
Q 3166 866 3366 1019 
L 3366 103 
Q 3103 6 2833 -42 
Q 2563 -91 2291 -91 
Q 1344 -91 809 395 
Q 275 881 275 1747 
Q 275 2613 809 3098 
Q 1344 3584 2291 3584 
Q 2566 3584 2833 3536 
Q 3100 3488 3366 3391 
z
" transform="scale(0.015625)"/>
      <path id="DejaVuSans-Bold-74" d="M 1759 4494 
L 1759 3500 
L 2913 3500 
L 2913 2700 
L 1759 2700 
L 1759 1216 
Q 1759 972 1856 886 
Q 1953 800 2241 800 
L 2816 800 
L 2816 0 
L 1856 0 
Q 1194 0 917 276 
Q 641 553 641 1216 
L 641 2700 
L 84 2700 
L 84 3500 
L 641 3500 
L 641 4494 
L 1759 4494 
z
" transform="scale(0.015625)"/>
      <path id="DejaVuSans-Bold-20" transform="scale(0.015625)"/>
      <path id="DejaVuSans-Bold-6f" d="M 2203 2784 
Q 1831 2784 1636 2517 
Q 1441 2250 1441 1747 
Q 1441 1244 1636 976 
Q 1831 709 2203 709 
Q 2569 709 2762 976 
Q 2956 1244 2956 1747 
Q 2956 2250 2762 2517 
Q 2569 2784 2203 2784 
z
M 2203 3584 
Q 3106 3584 3614 3096 
Q 4122 2609 4122 1747 
Q 4122 884 3614 396 
Q 3106 -91 2203 -91 
Q 1297 -91 786 396 
Q 275 884 275 1747 
Q 275 2609 786 3096 
Q 1297 3584 2203 3584 
z
" transform="scale(0.015625)"/>
      <path id="DejaVuSans-Bold-6e" d="M 4056 2131 
L 4056 0 
L 2931 0 
L 2931 347 
L 2931 1631 
Q 2931 2084 2911 2256 
Q 2891 2428 2841 2509 
Q 2775 2619 2662 2680 
Q 2550 2741 2406 2741 
Q 2056 2741 1856 2470 
Q 1656 2200 1656 1722 
L 1656 0 
L 538 0 
L 538 3500 
L 1656 3500 
L 1656 2988 
Q 1909 3294 2193 3439 
Q 2478 3584 2822 3584 
Q 3428 3584 3742 3212 
Q 4056 2841 4056 2131 
z
" transform="scale(0.015625)"/>
      <path id="DejaVuSans-Bold-73" d="M 3272 3391 
L 3272 2541 
Q 2913 2691 2578 2766 
Q 2244 2841 1947 2841 
Q 1628 2841 1473 2761 
Q 1319 2681 1319 2516 
Q 1319 2381 1436 2309 
Q 1553 2238 1856 2203 
L 2053 2175 
Q 2913 2066 3209 1816 
Q 3506 1566 3506 1031 
Q 3506 472 3093 190 
Q 2681 -91 1863 -91 
Q 1516 -91 1145 -36 
Q 775 19 384 128 
L 384 978 
Q 719 816 1070 734 
Q 1422 653 1784 653 
Q 2113 653 2278 743 
Q 2444 834 2444 1013 
Q 2444 1163 2330 1236 
Q 2216 1309 1875 1350 
L 1678 1375 
Q 931 1469 631 1722 
Q 331 1975 331 2491 
Q 331 3047 712 3315 
Q 1094 3584 1881 3584 
Q 2191 3584 2531 3537 
Q 2872 3491 3272 3391 
z
" transform="scale(0.015625)"/>
      <path id="DejaVuSans-Bold-72" d="M 3138 2547 
Q 2991 2616 2845 2648 
Q 2700 2681 2553 2681 
Q 2122 2681 1889 2404 
Q 1656 2128 1656 1613 
L 1656 0 
L 538 0 
L 538 3500 
L 1656 3500 
L 1656 2925 
Q 1872 3269 2151 3426 
Q 2431 3584 2822 3584 
Q 2878 3584 2943 3579 
Q 3009 3575 3134 3559 
L 3138 2547 
z
" transform="scale(0.015625)"/>
      <path id="DejaVuSans-Bold-77" d="M 225 3500 
L 1313 3500 
L 1900 1088 
L 2491 3500 
L 3425 3500 
L 4013 1113 
L 4603 3500 
L 5691 3500 
L 4769 0 
L 3547 0 
L 2956 2406 
L 2369 0 
L 1147 0 
L 225 3500 
z
" transform="scale(0.015625)"/>
      <path id="DejaVuSans-Bold-68" d="M 4056 2131 
L 4056 0 
L 2931 0 
L 2931 347 
L 2931 1625 
Q 2931 2084 2911 2256 
Q 2891 2428 2841 2509 
Q 2775 2619 2662 2680 
Q 2550 2741 2406 2741 
Q 2056 2741 1856 2470 
Q 1656 2200 1656 1722 
L 1656 0 
L 538 0 
L 538 4863 
L 1656 4863 
L 1656 2988 
Q 1909 3294 2193 3439 
Q 2478 3584 2822 3584 
Q 3428 3584 3742 3212 
Q 4056 2841 4056 2131 
z
" transform="scale(0.015625)"/>
      <path id="DejaVuSans-Bold-76" d="M 97 3500 
L 1216 3500 
L 2088 1081 
L 2956 3500 
L 4078 3500 
L 2700 0 
L 1472 0 
L 97 3500 
z
" transform="scale(0.015625)"/>
      <path id="DejaVuSans-Bold-61" d="M 2106 1575 
Q 1756 1575 1579 1456 
Q 1403 1338 1403 1106 
Q 1403 894 1545 773 
Q 1688 653 1941 653 
Q 2256 653 2472 879 
Q 2688 1106 2688 1447 
L 2688 1575 
L 2106 1575 
z
M 3816 1997 
L 3816 0 
L 2688 0 
L 2688 519 
Q 2463 200 2181 54 
Q 1900 -91 1497 -91 
Q 953 -91 614 226 
Q 275 544 275 1050 
Q 275 1666 698 1953 
Q 1122 2241 2028 2241 
L 2688 2241 
L 2688 2328 
Q 2688 2594 2478 2717 
Q 2269 2841 1825 2841 
Q 1466 2841 1156 2769 
Q 847 2697 581 2553 
L 581 3406 
Q 941 3494 1303 3539 
Q 1666 3584 2028 3584 
Q 2975 3584 3395 3211 
Q 3816 2838 3816 1997 
z
" transform="scale(0.015625)"/>
      <path id="DejaVuSans-Bold-79" d="M 78 3500 
L 1197 3500 
L 2138 1125 
L 2938 3500 
L 4056 3500 
L 2584 -331 
Q 2363 -916 2067 -1148 
Q 1772 -1381 1288 -1381 
L 641 -1381 
L 641 -647 
L 991 -647 
Q 1275 -647 1404 -556 
Q 1534 -466 1606 -231 
L 1638 -134 
L 78 3500 
z
" transform="scale(0.015625)"/>
      <path id="DejaVuSans-Bold-69" d="M 538 3500 
L 1656 3500 
L 1656 0 
L 538 0 
L 538 3500 
z
M 538 4863 
L 1656 4863 
L 1656 3950 
L 538 3950 
L 538 4863 
z
" transform="scale(0.015625)"/>
      <path id="DejaVuSans-Bold-67" d="M 2919 594 
Q 2688 288 2409 144 
Q 2131 0 1766 0 
Q 1125 0 706 504 
Q 288 1009 288 1791 
Q 288 2575 706 3076 
Q 1125 3578 1766 3578 
Q 2131 3578 2409 3434 
Q 2688 3291 2919 2981 
L 2919 3500 
L 4044 3500 
L 4044 353 
Q 4044 -491 3511 -936 
Q 2978 -1381 1966 -1381 
Q 1638 -1381 1331 -1331 
Q 1025 -1281 716 -1178 
L 716 -306 
Q 1009 -475 1290 -558 
Q 1572 -641 1856 -641 
Q 2406 -641 2662 -400 
Q 2919 -159 2919 353 
L 2919 594 
z
M 2181 2772 
Q 1834 2772 1640 2515 
Q 1447 2259 1447 1791 
Q 1447 1309 1634 1061 
Q 1822 813 2181 813 
Q 2531 813 2725 1069 
Q 2919 1325 2919 1791 
Q 2919 2259 2725 2515 
Q 2531 2772 2181 2772 
z
" transform="scale(0.015625)"/>
      <path id="DejaVuSans-Bold-64" d="M 2919 2988 
L 2919 4863 
L 4044 4863 
L 4044 0 
L 2919 0 
L 2919 506 
Q 2688 197 2409 53 
Q 2131 -91 1766 -91 
Q 1119 -91 703 423 
Q 288 938 288 1747 
Q 288 2556 703 3070 
Q 1119 3584 1766 3584 
Q 2128 3584 2408 3439 
Q 2688 3294 2919 2988 
z
M 2181 722 
Q 2541 722 2730 984 
Q 2919 1247 2919 1747 
Q 2919 2247 2730 2509 
Q 2541 2772 2181 2772 
Q 1825 2772 1636 2509 
Q 1447 2247 1447 1747 
Q 1447 1247 1636 984 
Q 1825 722 2181 722 
z
" transform="scale(0.015625)"/>
      <path id="DejaVuSans-Bold-7a" d="M 366 3500 
L 3419 3500 
L 3419 2719 
L 1575 800 
L 3419 800 
L 3419 0 
L 288 0 
L 288 781 
L 2131 2700 
L 366 2700 
L 366 3500 
z
" transform="scale(0.015625)"/>
      <path id="DejaVuSans-Bold-2f" d="M 1644 4666 
L 2338 4666 
L 691 -594 
L 0 -594 
L 1644 4666 
z
" transform="scale(0.015625)"/>
      <path id="DejaVuSans-Bold-6c" d="M 538 4863 
L 1656 4863 
L 1656 0 
L 538 0 
L 538 4863 
z
" transform="scale(0.015625)"/>
      <path id="DejaVuSans-Bold-6d" d="M 3781 2919 
Q 3994 3244 4286 3414 
Q 4578 3584 4928 3584 
Q 5531 3584 5847 3212 
Q 6163 2841 6163 2131 
L 6163 0 
L 5038 0 
L 5038 1825 
Q 5041 1866 5042 1909 
Q 5044 1953 5044 2034 
Q 5044 2406 4934 2573 
Q 4825 2741 4581 2741 
Q 4263 2741 4089 2478 
Q 3916 2216 3909 1719 
L 3909 0 
L 2784 0 
L 2784 1825 
Q 2784 2406 2684 2573 
Q 2584 2741 2328 2741 
Q 2006 2741 1831 2477 
Q 1656 2213 1656 1722 
L 1656 0 
L 531 0 
L 531 3500 
L 1656 3500 
L 1656 2988 
Q 1863 3284 2130 3434 
Q 2397 3584 2719 3584 
Q 3081 3584 3359 3409 
Q 3638 3234 3781 2919 
z
" transform="scale(0.015625)"/>
      <path id="DejaVuSans-Bold-62" d="M 2400 722 
Q 2759 722 2948 984 
Q 3138 1247 3138 1747 
Q 3138 2247 2948 2509 
Q 2759 2772 2400 2772 
Q 2041 2772 1848 2508 
Q 1656 2244 1656 1747 
Q 1656 1250 1848 986 
Q 2041 722 2400 722 
z
M 1656 2988 
Q 1888 3294 2169 3439 
Q 2450 3584 2816 3584 
Q 3463 3584 3878 3070 
Q 4294 2556 4294 1747 
Q 4294 938 3878 423 
Q 3463 -91 2816 -91 
Q 2450 -91 2169 54 
Q 1888 200 1656 506 
L 1656 0 
L 538 0 
L 538 4863 
L 1656 4863 
L 1656 2988 
z
" transform="scale(0.015625)"/>
     </defs>
     <use xlink:href="#DejaVuSans-Bold-45"/>
     <use xlink:href="#DejaVuSans-Bold-66" x="68.310547"/>
     <use xlink:href="#DejaVuSans-Bold-66" x="111.816406"/>
     <use xlink:href="#DejaVuSans-Bold-65" x="155.322266"/>
     <use xlink:href="#DejaVuSans-Bold-63" x="223.144531"/>
     <use xlink:href="#DejaVuSans-Bold-74" x="282.421875"/>
     <use xlink:href="#DejaVuSans-Bold-20" x="330.224609"/>
     <use xlink:href="#DejaVuSans-Bold-6f" x="365.039062"/>
     <use xlink:href="#DejaVuSans-Bold-6e" x="433.740234"/>
     <use xlink:href="#DejaVuSans-Bold-20" x="504.931641"/>
     <use xlink:href="#DejaVuSans-Bold-73" x="539.746094"/>
     <use xlink:href="#DejaVuSans-Bold-63" x="599.267578"/>
     <use xlink:href="#DejaVuSans-Bold-6f" x="658.544922"/>
     <use xlink:href="#DejaVuSans-Bold-72" x="727.246094"/>
     <use xlink:href="#DejaVuSans-Bold-65" x="776.5625"/>
     <use xlink:href="#DejaVuSans-Bold-73" x="844.384766"/>
     <use xlink:href="#DejaVuSans-Bold-20" x="903.90625"/>
     <use xlink:href="#DejaVuSans-Bold-77" x="938.720703"/>
     <use xlink:href="#DejaVuSans-Bold-68" x="1031.103516"/>
     <use xlink:href="#DejaVuSans-Bold-65" x="1102.294922"/>
     <use xlink:href="#DejaVuSans-Bold-6e" x="1170.117188"/>
     <use xlink:href="#DejaVuSans-Bold-20" x="1241.308594"/>
     <use xlink:href="#DejaVuSans-Bold-76" x="1276.123047"/>
     <use xlink:href="#DejaVuSans-Bold-61" x="1341.308594"/>
     <use xlink:href="#DejaVuSans-Bold-72" x="1408.789062"/>
     <use xlink:href="#DejaVuSans-Bold-79" x="1458.105469"/>
     <use xlink:href="#DejaVuSans-Bold-69" x="1523.291016"/>
     <use xlink:href="#DejaVuSans-Bold-6e" x="1557.568359"/>
     <use xlink:href="#DejaVuSans-Bold-67" x="1628.759766"/>
     <use xlink:href="#DejaVuSans-Bold-20" x="1700.341797"/>
     <use xlink:href="#DejaVuSans-Bold-77" x="1735.15625"/>
     <use xlink:href="#DejaVuSans-Bold-69" x="1827.539062"/>
     <use xlink:href="#DejaVuSans-Bold-6e" x="1861.816406"/>
     <use xlink:href="#DejaVuSans-Bold-64" x="1933.007812"/>
     <use xlink:href="#DejaVuSans-Bold-6f" x="2004.589844"/>
     <use xlink:href="#DejaVuSans-Bold-77" x="2073.291016"/>
     <use xlink:href="#DejaVuSans-Bold-20" x="2165.673828"/>
     <use xlink:href="#DejaVuSans-Bold-73" x="2200.488281"/>
     <use xlink:href="#DejaVuSans-Bold-69" x="2260.009766"/>
     <use xlink:href="#DejaVuSans-Bold-7a" x="2294.287109"/>
     <use xlink:href="#DejaVuSans-Bold-65" x="2352.490234"/>
     <use xlink:href="#DejaVuSans-Bold-2f" x="2420.3125"/>
     <use xlink:href="#DejaVuSans-Bold-73" x="2456.835938"/>
     <use xlink:href="#DejaVuSans-Bold-69" x="2516.357422"/>
     <use xlink:href="#DejaVuSans-Bold-67" x="2550.634766"/>
     <use xlink:href="#DejaVuSans-Bold-6e" x="2622.216797"/>
     <use xlink:href="#DejaVuSans-Bold-61" x="2693.408203"/>
     <use xlink:href="#DejaVuSans-Bold-6c" x="2760.888672"/>
     <use xlink:href="#DejaVuSans-Bold-20" x="2795.166016"/>
     <use xlink:href="#DejaVuSans-Bold-63" x="2829.980469"/>
     <use xlink:href="#DejaVuSans-Bold-6f" x="2889.257812"/>
     <use xlink:href="#DejaVuSans-Bold-6d" x="2957.958984"/>
     <use xlink:href="#DejaVuSans-Bold-62" x="3062.158203"/>
     <use xlink:href="#DejaVuSans-Bold-6f" x="3133.740234"/>
     <use xlink:href="#DejaVuSans-Bold-73" x="3202.441406"/>
    </g>
   </g>
   <g id="legend_1">
    <g id="patch_8">
     <path d="M 546.354199 104.625 
L 702.468261 104.625 
Q 704.468261 104.625 704.468261 102.625 
L 704.468261 43.8 
Q 704.468261 41.8 702.468261 41.8 
L 546.354199 41.8 
Q 544.354199 41.8 544.354199 43.8 
L 544.354199 102.625 
Q 544.354199 104.625 546.354199 104.625 
z
" style="fill: #ffffff; opacity: 0.8; stroke: #cccccc; stroke-linejoin: miter"/>
    </g>
    <g id="line2d_40">
     <path d="M 548.354199 49.898438 
L 558.354199 49.898438 
L 568.354199 49.898438 
" style="fill: none; stroke: #1f77b4; stroke-width: 1.5; stroke-linecap: square"/>
     <g>
      <use xlink:href="#m6b5209b4d5" x="558.354199" y="49.898438" style="fill: #ffffff; stroke: #1f77b4"/>
     </g>
    </g>
    <g id="text_16">
     <!-- test_roc_auc -->
     <g transform="translate(576.354199 53.398438)scale(0.1 -0.1)">
      <defs>
       <path id="DejaVuSans-74" d="M 1172 4494 
L 1172 3500 
L 2356 3500 
L 2356 3053 
L 1172 3053 
L 1172 1153 
Q 1172 725 1289 603 
Q 1406 481 1766 481 
L 2356 481 
L 2356 0 
L 1766 0 
Q 1100 0 847 248 
Q 594 497 594 1153 
L 594 3053 
L 172 3053 
L 172 3500 
L 594 3500 
L 594 4494 
L 1172 4494 
z
" transform="scale(0.015625)"/>
       <path id="DejaVuSans-75" d="M 544 1381 
L 544 3500 
L 1119 3500 
L 1119 1403 
Q 1119 906 1312 657 
Q 1506 409 1894 409 
Q 2359 409 2629 706 
Q 2900 1003 2900 1516 
L 2900 3500 
L 3475 3500 
L 3475 0 
L 2900 0 
L 2900 538 
Q 2691 219 2414 64 
Q 2138 -91 1772 -91 
Q 1169 -91 856 284 
Q 544 659 544 1381 
z
M 1991 3584 
L 1991 3584 
z
" transform="scale(0.015625)"/>
      </defs>
      <use xlink:href="#DejaVuSans-74"/>
      <use xlink:href="#DejaVuSans-65" x="39.208984"/>
      <use xlink:href="#DejaVuSans-73" x="100.732422"/>
      <use xlink:href="#DejaVuSans-74" x="152.832031"/>
      <use xlink:href="#DejaVuSans-5f" x="192.041016"/>
      <use xlink:href="#DejaVuSans-72" x="242.041016"/>
      <use xlink:href="#DejaVuSans-6f" x="280.904297"/>
      <use xlink:href="#DejaVuSans-63" x="342.085938"/>
      <use xlink:href="#DejaVuSans-5f" x="397.066406"/>
      <use xlink:href="#DejaVuSans-61" x="447.066406"/>
      <use xlink:href="#DejaVuSans-75" x="508.345703"/>
      <use xlink:href="#DejaVuSans-63" x="571.724609"/>
     </g>
    </g>
    <g id="line2d_41">
     <path d="M 548.354199 64.854688 
L 558.354199 64.854688 
L 568.354199 64.854688 
" style="fill: none; stroke: #ff7f0e; stroke-width: 1.5; stroke-linecap: square"/>
     <g>
      <use xlink:href="#m80631f9549" x="558.354199" y="64.854688" style="fill: #ffffff; stroke: #ff7f0e"/>
     </g>
    </g>
    <g id="text_17">
     <!-- train_roc_auc -->
     <g transform="translate(576.354199 68.354688)scale(0.1 -0.1)">
      <use xlink:href="#DejaVuSans-74"/>
      <use xlink:href="#DejaVuSans-72" x="39.208984"/>
      <use xlink:href="#DejaVuSans-61" x="80.322266"/>
      <use xlink:href="#DejaVuSans-69" x="141.601562"/>
      <use xlink:href="#DejaVuSans-6e" x="169.384766"/>
      <use xlink:href="#DejaVuSans-5f" x="232.763672"/>
      <use xlink:href="#DejaVuSans-72" x="282.763672"/>
      <use xlink:href="#DejaVuSans-6f" x="321.626953"/>
      <use xlink:href="#DejaVuSans-63" x="382.808594"/>
      <use xlink:href="#DejaVuSans-5f" x="437.789062"/>
      <use xlink:href="#DejaVuSans-61" x="487.789062"/>
      <use xlink:href="#DejaVuSans-75" x="549.068359"/>
      <use xlink:href="#DejaVuSans-63" x="612.447266"/>
     </g>
    </g>
    <g id="line2d_42">
     <path d="M 548.354199 79.810938 
L 558.354199 79.810938 
L 568.354199 79.810938 
" style="fill: none; stroke: #2ca02c; stroke-width: 1.5; stroke-linecap: square"/>
     <g>
      <use xlink:href="#m73928fd0c6" x="558.354199" y="79.810938" style="fill: #ffffff; stroke: #2ca02c"/>
     </g>
    </g>
    <g id="text_18">
     <!-- test_balanced_accuracy -->
     <g transform="translate(576.354199 83.310938)scale(0.1 -0.1)">
      <defs>
       <path id="DejaVuSans-79" d="M 2059 -325 
Q 1816 -950 1584 -1140 
Q 1353 -1331 966 -1331 
L 506 -1331 
L 506 -850 
L 844 -850 
Q 1081 -850 1212 -737 
Q 1344 -625 1503 -206 
L 1606 56 
L 191 3500 
L 800 3500 
L 1894 763 
L 2988 3500 
L 3597 3500 
L 2059 -325 
z
" transform="scale(0.015625)"/>
      </defs>
      <use xlink:href="#DejaVuSans-74"/>
      <use xlink:href="#DejaVuSans-65" x="39.208984"/>
      <use xlink:href="#DejaVuSans-73" x="100.732422"/>
      <use xlink:href="#DejaVuSans-74" x="152.832031"/>
      <use xlink:href="#DejaVuSans-5f" x="192.041016"/>
      <use xlink:href="#DejaVuSans-62" x="242.041016"/>
      <use xlink:href="#DejaVuSans-61" x="305.517578"/>
      <use xlink:href="#DejaVuSans-6c" x="366.796875"/>
      <use xlink:href="#DejaVuSans-61" x="394.580078"/>
      <use xlink:href="#DejaVuSans-6e" x="455.859375"/>
      <use xlink:href="#DejaVuSans-63" x="519.238281"/>
      <use xlink:href="#DejaVuSans-65" x="574.21875"/>
      <use xlink:href="#DejaVuSans-64" x="635.742188"/>
      <use xlink:href="#DejaVuSans-5f" x="699.21875"/>
      <use xlink:href="#DejaVuSans-61" x="749.21875"/>
      <use xlink:href="#DejaVuSans-63" x="810.498047"/>
      <use xlink:href="#DejaVuSans-63" x="865.478516"/>
      <use xlink:href="#DejaVuSans-75" x="920.458984"/>
      <use xlink:href="#DejaVuSans-72" x="983.837891"/>
      <use xlink:href="#DejaVuSans-61" x="1024.951172"/>
      <use xlink:href="#DejaVuSans-63" x="1086.230469"/>
      <use xlink:href="#DejaVuSans-79" x="1141.210938"/>
     </g>
    </g>
    <g id="line2d_43">
     <path d="M 548.354199 94.767187 
L 558.354199 94.767187 
L 568.354199 94.767187 
" style="fill: none; stroke: #d62728; stroke-width: 1.5; stroke-linecap: square"/>
     <g>
      <use xlink:href="#m817577f4eb" x="558.354199" y="94.767187" style="fill: #ffffff; stroke: #d62728"/>
     </g>
    </g>
    <g id="text_19">
     <!-- train_balanced_accuracy -->
     <g transform="translate(576.354199 98.267187)scale(0.1 -0.1)">
      <use xlink:href="#DejaVuSans-74"/>
      <use xlink:href="#DejaVuSans-72" x="39.208984"/>
      <use xlink:href="#DejaVuSans-61" x="80.322266"/>
      <use xlink:href="#DejaVuSans-69" x="141.601562"/>
      <use xlink:href="#DejaVuSans-6e" x="169.384766"/>
      <use xlink:href="#DejaVuSans-5f" x="232.763672"/>
      <use xlink:href="#DejaVuSans-62" x="282.763672"/>
      <use xlink:href="#DejaVuSans-61" x="346.240234"/>
      <use xlink:href="#DejaVuSans-6c" x="407.519531"/>
      <use xlink:href="#DejaVuSans-61" x="435.302734"/>
      <use xlink:href="#DejaVuSans-6e" x="496.582031"/>
      <use xlink:href="#DejaVuSans-63" x="559.960938"/>
      <use xlink:href="#DejaVuSans-65" x="614.941406"/>
      <use xlink:href="#DejaVuSans-64" x="676.464844"/>
      <use xlink:href="#DejaVuSans-5f" x="739.941406"/>
      <use xlink:href="#DejaVuSans-61" x="789.941406"/>
      <use xlink:href="#DejaVuSans-63" x="851.220703"/>
      <use xlink:href="#DejaVuSans-63" x="906.201172"/>
      <use xlink:href="#DejaVuSans-75" x="961.181641"/>
      <use xlink:href="#DejaVuSans-72" x="1024.560547"/>
      <use xlink:href="#DejaVuSans-61" x="1065.673828"/>
      <use xlink:href="#DejaVuSans-63" x="1126.953125"/>
      <use xlink:href="#DejaVuSans-79" x="1181.933594"/>
     </g>
    </g>
   </g>
  </g>
 </g>
 <defs>
  <clipPath id="p1ce7589610">
   <rect x="58.175" y="36.8" width="207.67835" height="227.44301"/>
  </clipPath>
  <clipPath id="peefd21b4f0">
   <rect x="310.908014" y="36.8" width="207.67835" height="227.44301"/>
  </clipPath>
 </defs>
</svg>
